<svg width="24" height="24" viewBox="0 0 24 24" fill="none" xmlns="http://www.w3.org/2000/svg">
<path fill-rule="evenodd" clip-rule="evenodd" d="M21.2475 13.5118L21.2443 13.5151C20.7321 14.0498 20.2023 14.6028 19.9211 15.2818C19.6511 15.9354 19.6393 16.6821 19.6286 17.4054C19.6179 18.1554 19.6061 18.9407 19.2729 19.2729C18.9396 19.605 18.1596 19.6179 17.4054 19.6286C16.6821 19.6393 15.9354 19.6511 15.2818 19.9211C14.6028 20.2023 14.0498 20.7321 13.5151 21.2443L13.5118 21.2475L13.5099 21.2494C12.9748 21.762 12.4281 22.2857 12 22.2857C11.5714 22.2857 11.0196 21.7586 10.4882 21.2475C9.95679 20.7364 9.39857 20.2029 8.71821 19.9211C8.06464 19.6511 7.31786 19.6393 6.59464 19.6286C5.84464 19.6179 5.05929 19.6061 4.72714 19.2729C4.395 18.9396 4.38214 18.1596 4.37143 17.4054C4.36071 16.6821 4.34893 15.9354 4.07893 15.2818C3.79772 14.6028 3.2679 14.0498 2.75567 13.5151L2.7525 13.5118L2.75065 13.5099C2.23802 12.9748 1.71429 12.4281 1.71429 12C1.71429 11.5714 2.24143 11.0196 2.7525 10.4882C3.26357 9.95679 3.79714 9.39857 4.07893 8.71821C4.34893 8.06464 4.36071 7.31786 4.37143 6.59464C4.38214 5.84464 4.39393 5.05929 4.72714 4.72714C5.06036 4.395 5.84036 4.38214 6.59464 4.37143C7.31786 4.36071 8.06464 4.34893 8.71821 4.07893C9.39717 3.79772 9.95022 3.2679 10.4849 2.75567L10.4882 2.7525L10.4901 2.75065C11.0252 2.23802 11.5719 1.71429 12 1.71429C12.4286 1.71429 12.9804 2.24143 13.5118 2.7525C14.0432 3.26357 14.6014 3.79714 15.2818 4.07893C15.9354 4.34893 16.6821 4.36071 17.4054 4.37143C18.1554 4.38214 18.9407 4.39393 19.2729 4.72714C19.605 5.06036 19.6179 5.84036 19.6286 6.59464C19.6393 7.31786 19.6511 8.06464 19.9211 8.71821C20.2023 9.39717 20.7321 9.95022 21.2443 10.4849L21.2475 10.4882L21.2494 10.4901C21.762 11.0252 22.2857 11.5719 22.2857 12C22.2857 12.4286 21.7586 12.9804 21.2475 13.5118ZM17.0782 9.10034C17.0351 8.99628 16.9718 8.90175 16.8921 8.82214C16.8125 8.74245 16.718 8.67923 16.6139 8.63609C16.5099 8.59296 16.3984 8.57076 16.2857 8.57076C16.1731 8.57076 16.0615 8.59296 15.9575 8.63609C15.8534 8.67923 15.7589 8.74245 15.6793 8.82214L10.2857 14.2168L8.32071 12.2507C8.15988 12.0899 7.94174 11.9995 7.71429 11.9995C7.48683 11.9995 7.26869 12.0899 7.10786 12.2507C6.94702 12.4115 6.85667 12.6297 6.85667 12.8571C6.85667 13.0846 6.94702 13.3027 7.10786 13.4636L9.67929 16.035C9.75889 16.1147 9.85342 16.1779 9.95748 16.2211C10.0615 16.2642 10.1731 16.2864 10.2857 16.2864C10.3984 16.2864 10.5099 16.2642 10.6139 16.2211C10.718 16.1779 10.8125 16.1147 10.8921 16.035L16.8921 10.035C16.9718 9.95539 17.0351 9.86086 17.0782 9.75681C17.1213 9.65275 17.1435 9.54121 17.1435 9.42857C17.1435 9.31593 17.1213 9.20439 17.0782 9.10034Z" fill="#FFC234"/>
<path fill-rule="evenodd" clip-rule="evenodd" d="M22.4757 9.2924L22.485 9.30214C23.1954 10.0425 24 10.8814 24 12C24 13.1186 23.1954 13.9586 22.485 14.6979L22.4815 14.7015C22.0787 15.1225 21.6628 15.5572 21.5057 15.9375C21.3603 16.2872 21.3515 16.8663 21.3429 17.4277L21.3429 17.4311L21.3428 17.4352C21.3267 18.4799 21.3086 19.6629 20.4857 20.4857C19.6629 21.3086 18.4799 21.3267 17.4352 21.3428L17.4311 21.3429L17.4277 21.3429C16.8663 21.3515 16.2872 21.3603 15.9375 21.5057C15.5579 21.662 15.1267 22.0747 14.7076 22.4757L14.6979 22.485C13.9575 23.1954 13.1186 24 12 24C10.8814 24 10.0414 23.1954 9.30214 22.485L9.29848 22.4815C8.87747 22.0787 8.44282 21.6628 8.0625 21.5057C7.71284 21.3603 7.13373 21.3515 6.57227 21.3429L6.56893 21.3429L6.5648 21.3428C5.5201 21.3267 4.33713 21.3086 3.51429 20.4857C2.69144 19.6629 2.67326 18.4799 2.65721 17.4352L2.65714 17.4311L2.65709 17.4277C2.64854 16.8663 2.63971 16.2872 2.49429 15.9375C2.33799 15.5579 1.92533 15.1267 1.5243 14.7076L1.515 14.6979C0.804643 13.9575 0 13.1186 0 12C0 10.8814 0.804643 10.0414 1.515 9.30214L1.51849 9.2985C1.92133 8.87749 2.33724 8.44283 2.49429 8.0625C2.63971 7.71283 2.64854 7.13371 2.65709 6.57225L2.65714 6.56893C2.65746 6.55325 2.65778 6.53754 2.6581 6.52181C2.67911 5.48777 2.70271 4.32586 3.51429 3.51429C4.33713 2.69144 5.5201 2.67326 6.5648 2.65721L6.56893 2.65714L6.57264 2.65709C7.13399 2.64853 7.71505 2.63968 8.0625 2.49429C8.44206 2.338 8.87332 1.92533 9.29241 1.52431L9.30214 1.515C10.0425 0.804643 10.8814 0 12 0C13.1186 0 13.9586 0.804643 14.6979 1.515L14.7015 1.51849C15.1225 1.92133 15.5572 2.33724 15.9375 2.49429C16.2872 2.63971 16.8663 2.64854 17.4277 2.65709L17.4311 2.65714L17.4352 2.65721C18.4799 2.67326 19.6629 2.69144 20.4857 3.51429C21.3086 4.33713 21.3267 5.5201 21.3428 6.5648L21.3429 6.56893L21.3429 6.57227C21.3515 7.13373 21.3603 7.71284 21.5057 8.0625C21.662 8.44206 22.0747 8.87331 22.4757 9.2924ZM21.2443 13.5151L21.2475 13.5118C21.7586 12.9804 22.2857 12.4286 22.2857 12C22.2857 11.5719 21.762 11.0252 21.2494 10.4901L21.2475 10.4882L21.2443 10.4849C20.7321 9.95022 20.2023 9.39717 19.9211 8.71821C19.6511 8.06464 19.6393 7.31786 19.6286 6.59464C19.6179 5.84036 19.605 5.06036 19.2729 4.72714C18.9407 4.39393 18.1554 4.38214 17.4054 4.37143C16.6821 4.36071 15.9354 4.34893 15.2818 4.07893C14.6014 3.79714 14.0432 3.26357 13.5118 2.7525C12.9804 2.24143 12.4286 1.71429 12 1.71429C11.5719 1.71429 11.0252 2.23802 10.4901 2.75065L10.4882 2.7525L10.4849 2.75567C9.95022 3.2679 9.39717 3.79772 8.71821 4.07893C8.06464 4.34893 7.31786 4.36071 6.59464 4.37143C5.84036 4.38214 5.06036 4.395 4.72714 4.72714C4.39393 5.05929 4.38214 5.84464 4.37143 6.59464C4.36071 7.31786 4.34893 8.06464 4.07893 8.71821C3.79714 9.39857 3.26357 9.95679 2.7525 10.4882C2.24143 11.0196 1.71429 11.5714 1.71429 12C1.71429 12.4281 2.23802 12.9748 2.75065 13.5099L2.7525 13.5118L2.75567 13.5151C3.2679 14.0498 3.79772 14.6028 4.07893 15.2818C4.34893 15.9354 4.36071 16.6821 4.37143 17.4054C4.38214 18.1596 4.395 18.9396 4.72714 19.2729C5.05929 19.6061 5.84464 19.6179 6.59464 19.6286C7.31786 19.6393 8.06464 19.6511 8.71821 19.9211C9.39857 20.2029 9.95679 20.7364 10.4882 21.2475C11.0196 21.7586 11.5714 22.2857 12 22.2857C12.4281 22.2857 12.9748 21.762 13.5099 21.2494L13.5118 21.2475L13.5151 21.2443C14.0498 20.7321 14.6028 20.2023 15.2818 19.9211C15.9354 19.6511 16.6821 19.6393 17.4054 19.6286C18.1596 19.6179 18.9396 19.605 19.2729 19.2729C19.6061 18.9407 19.6179 18.1554 19.6286 17.4054C19.6393 16.6821 19.6511 15.9354 19.9211 15.2818C20.2023 14.6028 20.7321 14.0498 21.2443 13.5151Z" fill="#FFC234"/>
</svg>
