<svg width="22" height="24" viewBox="0 0 22 24" fill="none" xmlns="http://www.w3.org/2000/svg">
<path d="M7.3125 4.33333C6.86377 4.33333 6.5 4.6971 6.5 5.14583C6.5 5.59457 6.86377 5.95833 7.3125 5.95833H13.8125C14.2612 5.95833 14.625 5.59457 14.625 5.14583C14.625 4.6971 14.2612 4.33333 13.8125 4.33333H7.3125Z" fill="#1C274D"/>
<path fill-rule="evenodd" clip-rule="evenodd" d="M10.5002 2.9305e-07C8.25493 -1.56562e-05 6.48609 -2.81855e-05 5.10389 0.187817C3.68465 0.380696 2.55243 0.785075 1.66274 1.68441C0.774252 2.58252 0.375829 3.72344 0.185575 5.15386C-2.62161e-05 6.5493 -1.45866e-05 8.33584 2.64923e-07 10.607V16.1298C-1.14226e-05 17.7629 -2.06549e-05 19.056 0.10401 20.0295C0.20682 20.9916 0.427346 21.8595 1.05716 22.44C1.56245 22.9056 2.20145 23.1992 2.88346 23.2772C3.73655 23.3748 4.53309 22.9675 5.31774 22.4117C6.11176 21.8493 7.07498 20.9973 8.29025 19.9224L8.3298 19.8874C8.89321 19.3891 9.27466 19.0528 9.59291 18.8201C9.90049 18.5952 10.0883 18.5139 10.2466 18.482C10.4552 18.44 10.6698 18.44 10.8784 18.482C11.0367 18.5139 11.2245 18.5952 11.5321 18.8201C11.8503 19.0528 12.2318 19.3891 12.7952 19.8874L12.8348 19.9225C14.05 20.9973 15.0133 21.8493 15.8073 22.4117C16.5919 22.9675 17.3885 23.3748 18.2415 23.2772C18.9236 23.1992 19.5626 22.9056 20.0678 22.44C20.6977 21.8595 20.9182 20.9916 21.021 20.0295C21.125 19.056 21.125 17.763 21.125 16.1298V10.607C21.125 8.33584 21.125 6.54929 20.9394 5.15386C20.7492 3.72344 20.3507 2.58252 19.4623 1.68441C18.5726 0.785075 17.4404 0.380696 16.0211 0.187817C14.6389 -2.81855e-05 12.8701 -1.56562e-05 10.6248 2.9305e-07H10.5002ZM2.81797 2.82725C3.35613 2.28325 4.08689 1.96597 5.32272 1.79802C6.58282 1.62676 8.24119 1.625 10.5625 1.625C12.8838 1.625 14.5422 1.62676 15.8023 1.79802C17.0381 1.96597 17.7689 2.28325 18.307 2.82725C18.8464 3.37245 19.1619 4.11471 19.3286 5.36811C19.4983 6.644 19.5 8.32242 19.5 10.6681V16.0776C19.5 17.7745 19.4989 18.9802 19.4052 19.8569C19.3092 20.7553 19.1321 21.0925 18.9666 21.245C18.7133 21.4784 18.3948 21.6241 18.0568 21.6628C17.8405 21.6875 17.478 21.6038 16.7465 21.0857C16.033 20.5803 15.1354 19.7878 13.8718 18.6702L13.8434 18.6451C13.3156 18.1782 12.8778 17.791 12.4913 17.5084C12.0872 17.2129 11.6797 16.9858 11.1993 16.889C10.7789 16.8043 10.3461 16.8043 9.92569 16.889C9.44533 16.9858 9.0378 17.2129 8.63373 17.5084C8.24723 17.791 7.80944 18.1782 7.28158 18.6451L7.25321 18.6702C5.98961 19.7878 5.09195 20.5803 4.37846 21.0857C3.64699 21.6038 3.28447 21.6875 3.06819 21.6628C2.7302 21.6241 2.41169 21.4784 2.1584 21.245C1.99294 21.0925 1.81582 20.7553 1.71981 19.8569C1.62613 18.9802 1.625 17.7745 1.625 16.0776V10.6681C1.625 8.32242 1.62669 6.644 1.79639 5.36811C1.9631 4.11471 2.2786 3.37245 2.81797 2.82725Z" fill="#1C274D"/>
</svg>
