<svg width="19" height="24" viewBox="0 0 19 24" fill="none" xmlns="http://www.w3.org/2000/svg">
<path d="M4.33334 6.22917C4.33334 5.78044 4.6971 5.41667 5.14584 5.41667H13.8125C14.2612 5.41667 14.625 5.78044 14.625 6.22917C14.625 6.6779 14.2612 7.04167 13.8125 7.04167H5.14584C4.6971 7.04167 4.33334 6.6779 4.33334 6.22917Z" fill="#1C274D"/>
<path d="M5.14584 9.20834C4.6971 9.20834 4.33334 9.5721 4.33334 10.0208C4.33334 10.4696 4.6971 10.8333 5.14584 10.8333H10.5625C11.0112 10.8333 11.375 10.4696 11.375 10.0208C11.375 9.5721 11.0112 9.20834 10.5625 9.20834H5.14584Z" fill="#1C274D"/>
<path fill-rule="evenodd" clip-rule="evenodd" d="M7.25305 5.74189e-07C5.7715 -2.13157e-05 4.57732 -3.8961e-05 3.6381 0.126235C2.66299 0.257336 1.84196 0.537804 1.18988 1.18988C0.537804 1.84196 0.257336 2.66299 0.126235 3.6381C-3.8961e-05 4.57732 -2.13157e-05 5.77149 5.74188e-07 7.25304V16.0386C-2.13157e-05 17.5202 -3.8961e-05 18.7144 0.126235 19.6536C0.257336 20.6287 0.537804 21.4497 1.18988 22.1018C1.84196 22.7539 2.66299 23.0343 3.6381 23.1654C4.57732 23.2917 5.7715 23.2917 7.25306 23.2917H11.7053C13.1868 23.2917 14.381 23.2917 15.3202 23.1654C16.2954 23.0343 17.1164 22.7539 17.7685 22.1018C18.4205 21.4497 18.701 20.6287 18.8321 19.6536C18.9584 18.7144 18.9584 17.5202 18.9583 16.0386V7.25306C18.9584 5.7715 18.9584 4.57732 18.8321 3.6381C18.701 2.66299 18.4205 1.84196 17.7685 1.18988C17.1164 0.537804 16.2954 0.257336 15.3202 0.126235C14.381 -3.8961e-05 13.1868 -2.13157e-05 11.7053 5.74189e-07H7.25305ZM2.33893 2.33893C2.63876 2.0391 3.05971 1.84362 3.85463 1.73674C4.67293 1.62673 5.75747 1.625 7.3125 1.625H11.6458C13.2009 1.625 14.2854 1.62673 15.1037 1.73674C15.8986 1.84362 16.3196 2.0391 16.6194 2.33893C16.9192 2.63876 17.1147 3.05971 17.2216 3.85463C17.3316 4.67293 17.3333 5.75747 17.3333 7.3125V15.1667L4.90965 15.1666C4.02352 15.1664 3.41886 15.1662 2.90031 15.3051C2.43667 15.4293 2.00659 15.6322 1.625 15.8989V7.3125C1.625 5.75747 1.62673 4.67293 1.73674 3.85463C1.84362 3.05971 2.0391 2.63876 2.33893 2.33893ZM1.65399 18.4157C1.67046 18.799 1.69627 19.136 1.73674 19.437C1.84362 20.232 2.0391 20.6529 2.33893 20.9527C2.63876 21.2526 3.05971 21.4481 3.85463 21.5549C4.67293 21.6649 5.75747 21.6667 7.3125 21.6667H11.6458C13.2009 21.6667 14.2854 21.6649 15.1037 21.5549C15.8986 21.4481 16.3196 21.2526 16.6194 20.9527C16.9192 20.6529 17.1147 20.232 17.2216 19.437C17.3114 18.7694 17.329 17.9246 17.3325 16.7917H5.03509C3.97531 16.7917 3.60481 16.7986 3.32089 16.8747C2.54163 17.0835 1.9204 17.6628 1.65399 18.4157Z" fill="#1C274D"/>
</svg>
