<svg width="36" height="36" viewBox="0 0 36 36" fill="none" xmlns="http://www.w3.org/2000/svg">
<g clip-path="url(#clip0_12356_116868)">
<path fill-rule="evenodd" clip-rule="evenodd" d="M29.873 4.72684V1.23377C29.873 1.04849 29.9466 0.870791 30.0777 0.739775C30.2087 0.60876 30.3864 0.535156 30.5716 0.535156C30.7569 0.535156 30.9346 0.60876 31.0656 0.739775C31.1967 0.870791 31.2703 1.04849 31.2703 1.23377V4.72684H34.7633C34.9486 4.72684 35.1263 4.80044 35.2573 4.93146C35.3883 5.06247 35.4619 5.24017 35.4619 5.42545C35.4619 5.61074 35.3883 5.78843 35.2573 5.91945C35.1263 6.05046 34.9486 6.12407 34.7633 6.12407H31.2703V29.8769H34.7633C34.9486 29.8769 35.1263 29.9505 35.2573 30.0816C35.3883 30.2126 35.4619 30.3903 35.4619 30.5756C35.4619 30.7608 35.3883 30.9385 35.2573 31.0695C35.1263 31.2006 34.9486 31.2742 34.7633 31.2742H31.2703V34.7672C31.2703 35.1525 30.9573 35.4658 30.5716 35.4658C30.186 35.4658 29.873 35.1525 29.873 34.7672V31.2742H6.12016V34.7672C6.12016 35.1525 5.80721 35.4658 5.42155 35.4658C5.03588 35.4658 4.72293 35.1525 4.72293 34.7672V31.2742H1.22986C1.04458 31.2742 0.866885 31.2006 0.735869 31.0695C0.604854 30.9385 0.53125 30.7608 0.53125 30.5756C0.53125 30.3903 0.604854 30.2126 0.735869 30.0816C0.866885 29.9505 1.04458 29.8769 1.22986 29.8769H4.72293L4.72293 6.12407H1.22986C1.04458 6.12407 0.866885 6.05046 0.735869 5.91945C0.604854 5.78843 0.53125 5.61074 0.53125 5.42545C0.53125 5.24017 0.604854 5.06247 0.735869 4.93146C0.866885 4.80044 1.04458 4.72684 1.22986 4.72684H4.72293V1.23377C4.72293 1.04849 4.79654 0.870791 4.92755 0.739775C5.05857 0.60876 5.23626 0.535156 5.42155 0.535156C5.60683 0.535156 5.78453 0.60876 5.91554 0.739775C6.04656 0.870791 6.12016 1.04849 6.12016 1.23377V4.72684L29.873 4.72684ZM6.12016 6.12407L6.12016 29.8769H29.873V6.12407L6.12016 6.12407ZM27.9119 13.3978V22.6855C27.9119 22.945 27.8396 23.1993 27.7032 23.42C27.5668 23.6407 27.3716 23.8191 27.1395 23.9352L18.6952 28.1575V18.0062L27.9119 13.3978ZM17.298 17.9895V28.1575L8.85367 23.9352C8.62158 23.8191 8.42639 23.6407 8.28997 23.42C8.15355 23.1993 8.08128 22.945 8.08127 22.6855V13.3811L17.298 17.9895ZM8.71644 12.1443C8.76028 12.1157 8.80626 12.0897 8.85367 12.0658L17.3718 7.80644C17.5658 7.70958 17.7797 7.65916 17.9966 7.65916C18.2135 7.65916 18.4274 7.70958 18.6214 7.80644L27.1395 12.0658C27.1923 12.0922 27.2429 12.1218 27.2914 12.1539L18.0133 16.7929L8.71644 12.1443Z" fill="#303030"/>
</g>
<defs>
<clipPath id="clip0_12356_116868">
<rect width="36" height="36" fill="white"/>
</clipPath>
</defs>
</svg>
