<svg width="25" height="36" viewBox="0 0 25 36" fill="none" xmlns="http://www.w3.org/2000/svg">
<path d="M12.0859 18C12.0859 14.6863 14.7722 12 18.0859 12C21.3996 12 24.0859 14.6864 24.0859 18C24.0859 21.3137 21.3995 24 18.0859 24C14.7722 24 12.0859 21.3137 12.0859 18Z" fill="#00BCFF"/>
<path d="M0.0859375 30.0006C0.0859375 26.6869 2.77223 24.0006 6.08591 24.0006L9.28338 22.3125L12.0859 24.0006V30.0006C12.0859 33.3144 9.3996 36.0006 6.08591 36.0006C2.77223 36.0006 0.0859375 33.3143 0.0859375 30.0006Z" fill="#00CF7F"/>
<path d="M12.0852 0L8.82031 5.67211L12.0852 12H18.001C21.3148 12 24.001 9.31366 24.001 5.99998C24.001 2.68629 21.3147 0 18.001 0L12.0852 0Z" fill="#FF7361"/>
<path d="M0 5.99998C0 9.31366 2.68629 12 5.99998 12L9.18281 13.2293L12.0841 12V0L5.99991 0C2.68629 0 0 2.68629 0 5.99998Z" fill="#FF4D12"/>
<path d="M0.0859375 18C0.0859375 21.3138 2.77223 24 6.08591 24H12.0859V12H6.08591C2.77223 12 0.0859375 14.6864 0.0859375 18Z" fill="#B659FF"/>
</svg>
