<svg width="24" height="24" viewBox="0 0 24 24" fill="none" xmlns="http://www.w3.org/2000/svg">
<path d="M13.5417 9.47917C13.5417 9.9279 13.9054 10.2917 14.3542 10.2917H15.101L12.9207 12.4719C12.8149 12.5777 12.6434 12.5777 12.5377 12.4719L10.8197 10.754C10.0794 10.0136 8.87898 10.0136 8.13861 10.754L5.65464 13.238C5.33734 13.5553 5.33734 14.0697 5.65464 14.387C5.97194 14.7043 6.48639 14.7043 6.80369 14.387L9.28766 11.9031C9.39343 11.7973 9.56491 11.7973 9.67067 11.9031L11.3886 13.621C12.129 14.3614 13.3294 14.3614 14.0697 13.621L16.25 11.4407V12.1875C16.25 12.6362 16.6138 13 17.0625 13C17.5112 13 17.875 12.6362 17.875 12.1875V9.47917C17.875 9.03044 17.5112 8.66667 17.0625 8.66667H14.3542C13.9054 8.66667 13.5417 9.03044 13.5417 9.47917Z" fill="#343330"/>
<path fill-rule="evenodd" clip-rule="evenodd" d="M11.5837 2.29168e-07C9.08291 -1.37183e-05 7.12312 -2.47632e-05 5.59401 0.205559C4.02888 0.415985 2.79386 0.855104 1.82448 1.82448C0.855104 2.79386 0.415985 4.02888 0.205559 5.59401C-2.47632e-05 7.12312 -1.37183e-05 9.08291 2.29167e-07 11.5837V11.708C-1.37183e-05 14.2088 -2.47632e-05 16.1685 0.205559 17.6977C0.415985 19.2628 0.855104 20.4978 1.82448 21.4672C2.79386 22.4366 4.02888 22.8757 5.59401 23.0861C7.12313 23.2917 9.08292 23.2917 11.5837 23.2917H11.708C14.2087 23.2917 16.1685 23.2917 17.6977 23.0861C19.2628 22.8757 20.4978 22.4366 21.4672 21.4672C22.4366 20.4978 22.8757 19.2628 23.0861 17.6977C23.2917 16.1685 23.2917 14.2087 23.2917 11.708V11.5837C23.2917 9.08292 23.2917 7.12313 23.0861 5.59401C22.8757 4.02888 22.4366 2.79386 21.4672 1.82448C20.4978 0.855104 19.2628 0.415985 17.6977 0.205559C16.1685 -2.47632e-05 14.2088 -1.37183e-05 11.708 2.29168e-07H11.5837ZM2.97353 2.97353C3.59066 2.3564 4.4256 2.00227 5.81054 1.81607C7.21885 1.62673 9.06942 1.625 11.6458 1.625C14.2222 1.625 16.0728 1.62673 17.4811 1.81607C18.8661 2.00227 19.701 2.3564 20.3181 2.97353C20.9353 3.59066 21.2894 4.4256 21.4756 5.81054C21.6649 7.21885 21.6667 9.06942 21.6667 11.6458C21.6667 14.2222 21.6649 16.0728 21.4756 17.4811C21.2894 18.8661 20.9353 19.701 20.3181 20.3181C19.701 20.9353 18.8661 21.2894 17.4811 21.4756C16.0728 21.6649 14.2222 21.6667 11.6458 21.6667C9.06942 21.6667 7.21885 21.6649 5.81054 21.4756C4.4256 21.2894 3.59066 20.9353 2.97353 20.3181C2.3564 19.701 2.00227 18.8661 1.81607 17.4811C1.62673 16.0728 1.625 14.2222 1.625 11.6458C1.625 9.06942 1.62673 7.21885 1.81607 5.81054C2.00227 4.4256 2.3564 3.59066 2.97353 2.97353Z" fill="#343330"/>
</svg>
