<svg width="15" height="15" viewBox="0 0 15 15" fill="none" xmlns="http://www.w3.org/2000/svg">
<path d="M7.5 0C7.66576 0 7.82517 0.0654071 7.94238 0.182617C8.05959 0.299827 8.125 0.45924 8.125 0.625V6.875H14.375C14.5408 6.875 14.7002 6.94041 14.8174 7.05762C14.9346 7.17483 15 7.33424 15 7.5C15 7.66576 14.9346 7.82517 14.8174 7.94238C14.7002 8.05959 14.5408 8.125 14.375 8.125H8.125V14.375C8.125 14.5408 8.05959 14.7002 7.94238 14.8174C7.82517 14.9346 7.66576 15 7.5 15C7.33424 15 7.17483 14.9346 7.05762 14.8174C6.94041 14.7002 6.875 14.5408 6.875 14.375V8.125H0.625C0.45924 8.125 0.299827 8.05959 0.182617 7.94238C0.0654071 7.82517 0 7.66576 0 7.5C0 7.33424 0.065407 7.17483 0.182617 7.05762C0.299827 6.94041 0.45924 6.875 0.625 6.875H6.875V0.625C6.875 0.45924 6.94041 0.299827 7.05762 0.182617C7.17483 0.065407 7.33424 0 7.5 0Z" fill="#6A0BFF"/>
<path d="M7.5 0C7.66576 0 7.82517 0.0654071 7.94238 0.182617C8.05959 0.299827 8.125 0.45924 8.125 0.625V6.875H14.375C14.5408 6.875 14.7002 6.94041 14.8174 7.05762C14.9346 7.17483 15 7.33424 15 7.5C15 7.66576 14.9346 7.82517 14.8174 7.94238C14.7002 8.05959 14.5408 8.125 14.375 8.125H8.125V14.375C8.125 14.5408 8.05959 14.7002 7.94238 14.8174C7.82517 14.9346 7.66576 15 7.5 15C7.33424 15 7.17483 14.9346 7.05762 14.8174C6.94041 14.7002 6.875 14.5408 6.875 14.375V8.125H0.625C0.45924 8.125 0.299827 8.05959 0.182617 7.94238C0.0654071 7.82517 0 7.66576 0 7.5C0 7.33424 0.065407 7.17483 0.182617 7.05762C0.299827 6.94041 0.45924 6.875 0.625 6.875H6.875V0.625C6.875 0.45924 6.94041 0.299827 7.05762 0.182617C7.17483 0.065407 7.33424 0 7.5 0Z" stroke="#6A0BFF"/>
</svg>
