<svg width="24" height="24" viewBox="0 0 24 24" fill="none" xmlns="http://www.w3.org/2000/svg">
<path fill-rule="evenodd" clip-rule="evenodd" d="M11.6993 1.84191e-06H11.5923C10.8721 -3.67017e-05 10.2515 -6.99069e-05 9.7545 0.0667448C9.2219 0.138352 8.71136 0.299832 8.29726 0.713933C7.88316 1.12803 7.72168 1.63857 7.65007 2.17118C7.58326 2.66815 7.58329 3.28875 7.58333 4.00902L7.58333 6.6387C7.3292 6.54888 7.05572 6.50001 6.77083 6.50001H3.52083C2.17464 6.50001 1.08333 7.59131 1.08333 8.93751V21.6667H0.8125C0.363769 21.6667 0 22.0304 0 22.4792C0 22.9279 0.363769 23.2917 0.8125 23.2917H22.4792C22.9279 23.2917 23.2917 22.9279 23.2917 22.4792C23.2917 22.0304 22.9279 21.6667 22.4792 21.6667H22.2083V14.3542C22.2083 13.008 21.117 11.9167 19.7708 11.9167H16.5208C16.2359 11.9167 15.9625 11.9655 15.7083 12.0554L15.7083 4.00902C15.7084 3.28875 15.7084 2.66815 15.6416 2.17118C15.57 1.63857 15.4085 1.12803 14.9944 0.713933C14.5803 0.299832 14.0698 0.138352 13.5372 0.0667448C13.0402 -6.9911e-05 12.4196 -3.67017e-05 11.6993 1.84191e-06ZM20.5833 21.6667V14.3542C20.5833 13.9054 20.2196 13.5417 19.7708 13.5417H16.5208C16.0721 13.5417 15.7083 13.9054 15.7083 14.3542V21.6667H20.5833ZM14.0833 21.6667V4.06251C14.0833 3.2735 14.0816 2.76349 14.0311 2.3877C13.9837 2.03529 13.9072 1.92483 13.8454 1.86298C13.7835 1.80113 13.673 1.72463 13.3206 1.67725C12.9448 1.62673 12.4348 1.62501 11.6458 1.62501C10.8568 1.62501 10.3468 1.62673 9.97103 1.67725C9.61862 1.72463 9.50816 1.80113 9.44631 1.86298C9.38446 1.92483 9.30796 2.03529 9.26058 2.3877C9.21006 2.76349 9.20833 3.2735 9.20833 4.06251V21.6667H14.0833ZM7.58333 21.6667V8.93751C7.58333 8.48877 7.21956 8.12501 6.77083 8.12501H3.52083C3.0721 8.12501 2.70833 8.48877 2.70833 8.93751V21.6667H7.58333Z" fill="white"/>
</svg>
