<svg width="24" height="24" viewBox="0 0 24 24" fill="none" xmlns="http://www.w3.org/2000/svg">
<path fill-rule="evenodd" clip-rule="evenodd" d="M3.25 8.04374C1.39568 7.66733 0 6.0279 0 4.0625C0 1.81884 1.81884 0 4.0625 0C6.0279 0 7.66733 1.39568 8.04373 3.25H15.2479C15.6243 1.39568 17.2638 0 19.2292 0C21.4728 0 23.2917 1.81884 23.2917 4.0625C23.2917 6.0279 21.896 7.66733 20.0417 8.04374V15.2479C21.896 15.6243 23.2917 17.2638 23.2917 19.2292C23.2917 21.4728 21.4728 23.2917 19.2292 23.2917C17.2638 23.2917 15.6243 21.896 15.2479 20.0417H8.04373C7.66733 21.896 6.0279 23.2917 4.0625 23.2917C1.81884 23.2917 0 21.4728 0 19.2292C0 17.2638 1.39568 15.6243 3.25 15.2479L3.25 8.04374ZM1.625 4.0625C1.625 2.71631 2.71631 1.625 4.0625 1.625C5.40869 1.625 6.5 2.71631 6.5 4.0625C6.5 5.40869 5.40869 6.5 4.0625 6.5C2.71631 6.5 1.625 5.40869 1.625 4.0625ZM4.875 15.2479L4.875 8.04374C6.46679 7.72062 7.72062 6.46679 8.04373 4.875H15.2479C15.571 6.46679 16.8249 7.72062 18.4167 8.04374V15.2479C16.8249 15.571 15.571 16.8249 15.2479 18.4167H8.04373C7.72062 16.8249 6.46679 15.571 4.875 15.2479ZM4.0625 16.7917C2.71631 16.7917 1.625 17.883 1.625 19.2292C1.625 20.5754 2.71631 21.6667 4.0625 21.6667C5.40869 21.6667 6.5 20.5754 6.5 19.2292C6.5 17.883 5.40869 16.7917 4.0625 16.7917ZM21.6667 4.0625C21.6667 5.40869 20.5754 6.5 19.2292 6.5C17.883 6.5 16.7917 5.40869 16.7917 4.0625C16.7917 2.71631 17.883 1.625 19.2292 1.625C20.5754 1.625 21.6667 2.71631 21.6667 4.0625ZM16.7917 19.2292C16.7917 17.883 17.883 16.7917 19.2292 16.7917C20.5754 16.7917 21.6667 17.883 21.6667 19.2292C21.6667 20.5754 20.5754 21.6667 19.2292 21.6667C17.883 21.6667 16.7917 20.5754 16.7917 19.2292Z" fill="#343330"/>
</svg>
